<svg viewBox="0 0 376 376" fill="none" xmlns="http://www.w3.org/2000/svg">
    <g class="shrink">
        <path id="quadrant" fill-rule="evenodd" clip-rule="evenodd" d="M92 181.046C95.1527 133.148 133.384 94.8327 181.245 91.5475V92.9424C134.153 96.2228 96.5427 133.917 93.3946 181.046H92ZM282.456 181.046C279.302 133.827 241.554 96.0785 194.336 92.9239V91.5293C242.323 94.6884 280.692 133.058 283.851 181.046H282.456ZM194.336 281.986V283.38C242.232 280.227 280.547 241.997 283.833 194.136H282.438C279.157 241.228 241.463 278.837 194.336 281.986ZM181.245 283.362V281.967C134.244 278.693 96.6877 241.137 93.4132 194.136H92.0183C95.2977 241.906 133.475 280.083 181.245 283.362Z" fill="#454545"/>
        <circle id="innerStroke" class="goldenHover" cx="187.176" cy="189.176" r="111.48" stroke="#CDCDCD" stroke-opacity="0.2" stroke-width="1.3915"/>
    </g>

    <circle id="outerDash" cx="187.52" cy="187.514" r="138.222" transform="rotate(-111.407 187.52 187.514)" stroke="#F9F9F9" stroke-opacity="0.5" stroke-dasharray="4.28 4.28"/>
   
    
    
    <g id="connectedCircle">
        <path class="goldenHover" d="M25 169.104C30.3031 120.009 69.8858 21.8188 185.791 21.8188C301.697 21.8188 344.107 120.009 350.825 169.104" stroke="#F4F4F4" stroke-opacity="0.6" stroke-width="3.47874"/>
        <path class="goldenHover" d="M25 205.925C30.3031 255.02 69.8858 353.21 185.791 353.21C301.697 353.21 344.107 255.02 350.825 205.925" stroke="#F4F4F4" stroke-opacity="0.6" stroke-width="3.47874"/>
        <g filter="url(#filter0_d_245_247)">
            <circle cx="187.514" cy="187.514" r="147.927" transform="rotate(71.4861 187.514 187.514)" stroke="#F9F9F9" stroke-width="0.428153" stroke-dasharray="1.39 1.39" shape-rendering="crispEdges"/>
        </g>

        <path d="M10.9746 131.442C4.26687 151.137 -5.12396 201.231 10.9746 244.047" stroke="#F9F9F9" stroke-opacity="0.5" stroke-width="0.428153"/>
        <circle cx="11.2911" cy="130.8" r="1.07038" fill="#F9F9F9"/>
        <circle cx="11.2911" cy="244.261" r="1.07038" fill="#F9F9F9"/>
        <path d="M2.30176 187.745H38.2667" stroke="#F9F9F9" stroke-opacity="0.5" stroke-width="0.428153"/>
        <circle cx="39.1221" cy="187.745" r="1.07038" fill="#F9F9F9"/>
        <path d="M9.22189 130.184C9.38506 129.887 9.71874 129.457 10.1775 129.149C10.6318 128.845 11.1971 128.666 11.8453 128.837L11.9546 128.423C11.1588 128.213 10.468 128.439 9.9389 128.794C9.41422 129.146 9.03713 129.632 8.8468 129.977L9.22189 130.184ZM11.8453 128.837C12.4935 129.009 12.8971 129.443 13.1417 129.932C13.3886 130.426 13.4665 130.965 13.462 131.303L13.8901 131.309C13.8953 130.914 13.8071 130.306 13.5247 129.741C13.2398 129.171 12.7505 128.634 11.9546 128.423L11.8453 128.837Z" fill="#F9F9F9" fill-opacity="0.5"/>
        <path d="M9.12521 244.742C9.28838 245.038 9.62206 245.468 10.0808 245.776C10.5351 246.081 11.1004 246.259 11.7486 246.088L11.8579 246.502C11.0621 246.712 10.3713 246.486 9.84222 246.131C9.31754 245.779 8.94045 245.294 8.75012 244.948L9.12521 244.742ZM11.7486 246.088C12.3969 245.917 12.8004 245.483 13.045 244.993C13.292 244.499 13.3698 243.96 13.3653 243.622L13.7934 243.616C13.7986 244.011 13.7105 244.619 13.428 245.185C13.1432 245.754 12.6538 246.292 11.8579 246.502L11.7486 246.088Z" fill="#F9F9F9" fill-opacity="0.5"/>
        <path d="M363.176 131.442C369.884 151.137 379.274 201.231 363.176 244.047" stroke="#F9F9F9" stroke-opacity="0.5" stroke-width="0.428153"/>
        <circle r="1.07038" transform="matrix(-1 0 0 1 362.859 130.8)" fill="#F9F9F9"/>
        <circle r="1.07038" transform="matrix(-1 0 0 1 362.859 244.261)" fill="#F9F9F9"/>
        <path d="M371.851 187.745H335.886" stroke="#F9F9F9" stroke-opacity="0.5" stroke-width="0.428153"/>
        <circle r="1.07038" transform="matrix(-1 0 0 1 335.03 187.745)" fill="#F9F9F9"/>
        <path d="M364.929 130.184C364.766 129.887 364.433 129.457 363.974 129.149C363.52 128.845 362.954 128.666 362.306 128.837L362.197 128.423C362.993 128.213 363.683 128.439 364.212 128.794C364.737 129.146 365.114 129.632 365.305 129.977L364.929 130.184ZM362.306 128.837C361.658 129.009 361.254 129.443 361.01 129.932C360.763 130.426 360.685 130.965 360.689 131.303L360.261 131.309C360.256 130.914 360.344 130.306 360.627 129.741C360.912 129.171 361.401 128.634 362.197 128.423L362.306 128.837Z" fill="#F9F9F9" fill-opacity="0.5"/>
        <path d="M365.028 244.742C364.865 245.038 364.531 245.468 364.073 245.776C363.618 246.081 363.053 246.259 362.405 246.088L362.295 246.502C363.091 246.712 363.782 246.486 364.311 246.131C364.836 245.779 365.213 245.294 365.403 244.948L365.028 244.742ZM362.405 246.088C361.756 245.917 361.353 245.483 361.108 244.993C360.861 244.499 360.784 243.96 360.788 243.622L360.36 243.616C360.355 244.011 360.443 244.619 360.725 245.185C361.01 245.754 361.5 246.292 362.295 246.502L362.405 246.088Z" fill="#F9F9F9" fill-opacity="0.5"/>
    </g>

    
    <defs>
        <filter id="filter0_d_245_247" x="18.9701" y="18.9711" width="337.087" height="337.087" filterUnits="userSpaceOnUse" color-interpolation-filters="sRGB">
            <feFlood flood-opacity="0" result="BackgroundImageFix"/>
            <feColorMatrix in="SourceAlpha" type="matrix" values="0 0 0 0 0 0 0 0 0 0 0 0 0 0 0 0 0 0 127 0" result="hardAlpha"/>
            <feOffset/>
            <feGaussianBlur stdDeviation="10.181"/>
            <feComposite in2="hardAlpha" operator="out"/>
            <feColorMatrix type="matrix" values="0 0 0 0 0.988235 0 0 0 0 0.913725 0 0 0 0 0.52549 0 0 0 0.2 0"/>
            <feBlend mode="normal" in2="BackgroundImageFix" result="effect1_dropShadow_245_247"/>
            <feBlend mode="normal" in="SourceGraphic" in2="effect1_dropShadow_245_247" result="shape"/>
        </filter>
    </defs>
</svg>
