<svg  id="flux" width="100%"  viewBox="0 0 35 36" fill="none" xmlns="http://www.w3.org/2000/svg">
<path d="M18.8956 0.780358C19.9277 0.373952 21.0966 0.620581 21.8833 1.41459L24.3239 3.87777C24.7551 4.31296 25.2792 4.64248 25.8567 4.84036L29.1152 5.95699C30.1673 6.31752 30.9177 7.28044 31.0176 8.42118L31.3185 11.857C31.3727 12.4765 31.5667 13.0753 31.8861 13.6066L33.6526 16.5456C34.2415 17.5254 34.2016 18.7721 33.55 19.715L31.608 22.5249C31.2541 23.037 31.0216 23.6246 30.9281 24.2417L30.4142 27.6345C30.2418 28.7727 29.4253 29.6927 28.3454 29.9861L25.0423 30.8838C24.4504 31.0447 23.9032 31.3414 23.4425 31.7503L20.8638 34.0396C20.0241 34.785 18.8387 34.9568 17.8355 34.4848L14.7064 33.0126C14.1546 32.753 13.5512 32.625 12.9423 32.6387L9.49224 32.7164C8.38746 32.7413 7.36713 32.1027 6.89199 31.0752L5.43821 27.9311C5.17907 27.3707 4.7964 26.8777 4.31888 26.4906L1.64967 24.3271C0.774017 23.6173 0.391231 22.4399 0.684858 21.3273L1.56005 18.0111C1.71926 17.4078 1.73928 16.7756 1.61844 16.1637L0.954454 12.8015C0.731131 11.6707 1.19061 10.5144 2.11532 9.85857L4.89915 7.8841C5.40352 7.52637 5.81941 7.05586 6.11523 6.5098L7.75377 3.48512C8.29647 2.48332 9.36261 1.90745 10.4676 2.00435L13.895 2.3049C14.5028 2.35819 15.1144 2.26924 15.6832 2.0453L18.8956 0.780358Z" stroke="white" stroke-width="1.17464"/>
<path d="M19.4401 25.3982L19.3777 25.4976H19.4951H20.9389H20.9758L20.9947 25.466L22.0664 23.6736L23.1382 25.466L23.1571 25.4976H23.1939H24.6377H24.7551L24.6927 25.3982L22.8974 22.5381L24.6927 19.6781L24.7551 19.5786H24.6377H23.1939H23.157L23.1381 19.6103L22.0664 21.4105L20.9947 19.6103L20.9758 19.5786H20.9389H19.4951H19.3777L19.4401 19.6781L21.2354 22.5381L19.4401 25.3982Z" fill="white" stroke="white" stroke-width="0.129856"/>
<path d="M10.8325 15.3116V15.3765H10.8975H12.2115H12.2764V15.3116V13.3751H14.3691H14.434V13.3102V12.2103V12.1453H14.3691H12.2764V10.7121H14.3691H14.434V10.6472V9.52246V9.45753H14.3691H10.8975H10.8325V9.52246V15.3116Z" fill="white" stroke="white" stroke-width="0.129856"/>
<path d="M20.4468 15.3116V15.3765H20.5117H23.9347H23.9996V15.3116V14.1207V14.0558H23.9347H21.8907V9.52246V9.45753H21.8258H20.5117H20.4468V9.52246V15.3116Z" fill="white" stroke="white" stroke-width="0.129856"/>
<path d="M10.6525 25.0755L10.6528 25.0757C11.0788 25.4586 11.6555 25.6465 12.3753 25.6465C13.0951 25.6465 13.6718 25.4586 14.0977 25.0757C14.5252 24.6915 14.7357 24.1541 14.7357 23.4727V19.6436V19.5786H14.6708H13.3568H13.2918V19.6436V23.39C13.2918 23.7032 13.2062 23.9387 13.0427 24.1054L13.0427 24.1053L13.042 24.1061C12.8837 24.2725 12.6643 24.3588 12.3753 24.3588C12.0866 24.3588 11.864 24.2727 11.7001 24.1057C11.5418 23.9391 11.4587 23.7035 11.4587 23.39V19.6436V19.5786H11.3938H10.0879H10.023V19.6436V23.4727C10.023 24.1538 10.2306 24.6911 10.6525 25.0755Z" fill="white" stroke="white" stroke-width="0.129856"/>
</svg>
