<svg  id="scadpro" width="100%" viewBox="0 0 63 13" fill="none" xmlns="http://www.w3.org/2000/svg">
<g opacity="0.8">
<mask id="mask0_167_2985" style="mask-type:alpha" maskUnits="userSpaceOnUse" x="37" y="0" width="10" height="13">
<path d="M39.3648 9.04226L39.2535 8.96121V9.09886V12.8374H37.2556V0.366177H39.2535V0.860397V0.998051L39.3648 0.917001C40.0983 0.382669 40.9833 0.0700294 41.9366 0.0700294C44.4622 0.0700294 46.518 2.26366 46.518 4.97963C46.518 7.6956 44.4622 9.88923 41.9366 9.88923C40.9833 9.88923 40.0983 9.57659 39.3648 9.04226ZM41.9366 7.79219C43.3949 7.79219 44.5686 6.52855 44.5686 4.97963C44.5686 3.43071 43.3949 2.16676 41.9366 2.16676C40.4788 2.16676 39.3045 3.4307 39.3045 4.97963C39.3045 6.52856 40.4788 7.79219 41.9366 7.79219Z" fill="white" stroke="white" stroke-width="0.140059"/>
</mask>
<g mask="url(#mask0_167_2985)">
<path d="M46.5461 0.0602637V12.8396H37.2243V0.0602637H46.5461Z" fill="#F9F9F9" stroke="white" stroke-width="0.140059"/>
</g>
<mask id="mask1_167_2985" style="mask-type:alpha" maskUnits="userSpaceOnUse" x="47" y="0" width="8" height="10">
<path d="M52.0307 2.26087C50.719 2.26087 49.6548 3.34953 49.564 4.71812H49.5547V4.78815V4.90104C49.5545 4.90276 49.5544 4.90489 49.5544 4.90727C49.5544 4.90964 49.5545 4.91177 49.5547 4.91351V8.89204L49.5531 8.89113V9.01084V9.69054H47.5554V0.366179H49.5531V0.948462V1.09141L49.666 1.0038C50.4207 0.418478 51.3444 0.0700294 52.3463 0.0700294C53.0393 0.0700294 53.6946 0.238767 54.2838 0.534967C53.716 1.06017 53.251 1.70759 52.9224 2.43826C52.646 2.32426 52.3456 2.26087 52.0307 2.26087ZM49.5556 4.9206C49.5557 4.9208 49.5557 4.92069 49.5556 4.92038L49.5556 4.9206Z" fill="white" stroke="white" stroke-width="0.140059"/>
</mask>
<g mask="url(#mask1_167_2985)">
<path d="M54.3385 0.0602637V9.69118H47.5271V0.0602637H54.3385Z" fill="#F9F9F9" stroke="white" stroke-width="0.140059"/>
</g>
<mask id="mask2_167_2985" style="mask-type:alpha" maskUnits="userSpaceOnUse" x="53" y="0" width="10" height="10">
<path d="M57.8732 0.0700294C60.3988 0.0700294 62.4547 2.2637 62.4547 4.97971C62.4547 7.69573 60.3988 9.8894 57.8732 9.8894C55.3473 9.8894 53.2917 7.69574 53.2917 4.97971C53.2917 2.26369 55.3473 0.0700294 57.8732 0.0700294ZM57.8732 7.82972C59.3503 7.82972 60.5401 6.54918 60.5401 4.97971C60.5401 3.41026 59.3503 2.12941 57.8732 2.12941C56.3958 2.12941 55.2063 3.41027 55.2063 4.97971C55.2063 6.54917 56.3958 7.82972 57.8732 7.82972Z" fill="white" stroke="white" stroke-width="0.140059"/>
</mask>
<g mask="url(#mask2_167_2985)">
<path d="M62.4779 0.0592872V9.90732H53.2849V0.0592872H62.4779Z" fill="#F9F9F9" stroke="white" stroke-width="0.140059"/>
</g>
<path fill-rule="evenodd" clip-rule="evenodd" d="M1 8.80933L2.15295 7.33068C2.95109 8.03608 3.78704 8.48362 4.80108 8.48362C5.59894 8.48362 6.08035 8.14464 6.08035 7.58853V7.56139C6.08035 7.03241 5.77622 6.76129 4.29393 6.35416C2.5075 5.8662 1.35455 5.33693 1.35455 3.45144V3.4243C1.35455 1.70167 2.64696 0.562299 4.4586 0.562299C5.75128 0.562299 6.85328 0.996877 7.75279 1.76983L6.73929 3.34318C5.95376 2.75962 5.1811 2.40707 4.43312 2.40707C3.68567 2.40707 3.2933 2.77319 3.2933 3.23461V3.26145C3.2933 3.88542 3.67306 4.08899 5.20604 4.50939C7.00534 5.01152 8.0191 5.70305 8.0191 7.35782V7.38496C8.0191 9.27045 6.67627 10.3284 4.76272 10.3284C3.41962 10.3284 2.06392 9.82656 1 8.80933ZM8.91808 5.47264V5.4455C8.91808 2.74635 10.8185 0.535156 13.5425 0.535156C15.2149 0.535156 16.2158 1.13229 17.0395 2.00024L15.7977 3.53287C15.1136 2.86849 14.4168 2.46135 13.5299 2.46135C12.0347 2.46135 10.9579 3.79072 10.9579 5.41835V5.4455C10.9579 7.07313 12.0095 8.42964 13.5299 8.42964C14.5434 8.42964 15.1643 7.99566 15.861 7.31741L17.1027 8.66005C16.1904 9.70472 15.1769 10.3558 13.4663 10.3558C10.8566 10.3558 8.91808 8.19893 8.91808 5.47264ZM21.2956 0.630154H23.0947L26.8957 10.1927H24.8562L24.0449 8.06352H20.295L19.484 10.1927H17.4948L21.2956 0.630154ZM23.3484 6.21845L22.17 3.13961L20.9918 6.21845H23.3484ZM27.858 0.69801H31.3172C34.1042 0.69801 36.0303 2.74605 36.0303 5.41835V5.4455C36.0303 8.1175 34.1042 10.193 31.3172 10.193H27.858V0.69801ZM31.3172 8.3075C32.9137 8.3075 33.9902 7.15456 33.9902 5.47264V5.4455C33.9902 3.76358 32.9137 2.58349 31.3172 2.58349H29.8094V8.3075H31.3172Z" stroke="white" stroke-width="0.377431"/>
</g>
</svg>
